<svg width="1000" height="804" viewBox="0 0 1000 804" fill="none" xmlns="http://www.w3.org/2000/svg">
<g clip-path="url(#clip0_6_6)">
<g clip-path="url(#clip1_6_6)">
<path d="M432.979 100.605C436.056 100.605 438.547 103.097 438.547 106.173C438.547 109.25 436.056 111.741 432.979 111.741H379.747L341.425 150.064C339.253 152.236 335.731 152.236 333.546 150.064C331.374 147.893 331.374 144.371 333.546 142.185L364.003 111.728H273.869C248.158 111.728 231.119 117.727 220.706 129.838C210.127 142.158 205.839 161.215 205.839 187.051C205.839 187.204 205.839 187.357 205.825 187.51L206.299 269.418L239.095 236.622C241.267 234.45 244.789 234.45 246.974 236.622C249.146 238.793 249.146 242.315 246.974 244.501L206.396 285.079C206.856 365.066 206.828 444.37 206.368 524.357C263.261 580.61 319.361 636.667 375.599 693.546H432.255C435.332 693.546 437.824 696.038 437.824 699.115C437.824 702.191 435.332 704.683 432.255 704.683H386.61L444.519 763.26L444.533 763.246C462.811 781.524 479.306 791.95 495.482 793.189C511.435 794.4 527.722 786.591 545.902 768.424L609.644 704.683H563.386C560.31 704.683 557.818 702.191 557.818 699.115C557.818 696.038 560.31 693.546 563.386 693.546H620.78L657.892 656.435C660.063 654.263 663.585 654.263 665.771 656.435C667.942 658.606 667.942 662.128 665.771 664.313L636.524 693.56H726.659C752.37 693.56 769.408 687.561 779.821 675.45C790.401 663.13 794.688 644.073 794.688 618.237H794.716L794.243 535.87L758.495 571.617C756.323 573.789 752.801 573.789 750.616 571.617C748.444 569.446 748.444 565.924 750.616 563.738L794.145 520.209C793.686 440.222 793.714 360.917 794.173 280.931C737.28 224.678 681.181 168.62 624.942 111.741H566.574C563.497 111.741 561.006 109.25 561.006 106.173C561.006 103.097 563.497 100.605 566.574 100.605H613.931L556.287 42.2924C556.189 42.2089 556.106 42.1253 556.008 42.0418C537.731 23.7643 521.235 13.3379 505.059 12.099C489.106 10.8879 472.82 18.6972 454.639 36.8634L390.898 100.605H432.993H432.979ZM273.869 100.605H375.14L446.747 28.9984C467.391 8.35435 486.503 -0.457287 505.867 1.01828C524.993 2.46601 543.716 14.02 563.873 34.1768C563.985 34.2881 564.082 34.3856 564.179 34.4969L629.536 100.605H726.659C755.836 100.605 775.589 107.899 788.257 122.641C800.757 137.188 805.81 158.584 805.81 187.079C805.81 187.26 805.797 187.427 805.783 187.594L805.281 276.309L868.745 339.062L868.759 339.048C888.915 359.205 900.469 377.914 901.917 397.055C903.393 416.418 894.567 435.531 873.937 456.175L805.254 524.858L805.783 618.265H805.81C805.81 646.76 800.743 668.156 788.257 682.702C775.589 697.444 755.836 704.738 726.659 704.738H625.388L553.781 776.345C533.137 796.989 514.024 805.801 494.661 804.325C475.534 802.878 456.811 791.324 436.654 771.167L436.668 771.153L370.992 704.725H273.869C244.691 704.725 224.938 697.43 212.271 682.688C199.77 668.142 194.717 646.746 194.717 618.251H194.745L195.26 529.021L132.103 466.588C131.991 466.49 131.88 466.393 131.783 466.281C111.626 446.124 100.072 427.415 98.6242 408.275C97.1486 388.911 105.974 369.799 126.604 349.155L195.288 280.471L194.759 187.594C194.745 187.427 194.731 187.246 194.731 187.079C194.731 158.584 199.798 137.188 212.285 122.641C224.952 107.899 244.705 100.605 273.883 100.605H273.869ZM195.97 402.665L195.357 296.132L134.469 357.02C116.303 375.186 108.494 391.487 109.705 407.44C110.93 423.615 121.37 440.125 139.648 458.388C139.731 458.472 139.829 458.569 139.898 458.667L195.343 513.472L195.97 402.651V402.665ZM206.285 539.92L205.839 618.251H205.867C205.867 644.101 210.155 663.158 220.734 675.464C231.147 687.588 248.185 693.574 273.896 693.574H360.008L285.116 617.819L206.299 539.906L206.285 539.92ZM726.659 111.741H640.547L715.439 187.497L794.256 265.409L794.702 187.538C794.688 187.385 794.688 187.232 794.688 187.079C794.688 161.229 790.401 142.172 779.821 129.866C769.408 117.741 752.37 111.755 726.659 111.755V111.741ZM805.198 291.844L804.572 402.665L805.184 509.198L866.072 448.31C884.238 430.144 892.048 413.843 890.837 397.89C889.612 381.701 879.171 365.205 860.894 346.941L860.908 346.927L805.198 291.858V291.844Z" fill="white"/>
<g clip-path="url(#clip2_6_6)">
<g clip-path="url(#clip3_6_6)">
<g clip-path="url(#clip4_6_6)">
<g clip-path="url(#clip5_6_6)">
<g clip-path="url(#clip6_6_6)">
<g clip-path="url(#clip7_6_6)">
<path d="M296.155 467.244H305.914L297.892 524.394H284.08L277.96 478.409L271.591 524.394H258.028L250.171 467.244H260.343L265.637 515.958L272.501 467.244H283.666L290.366 515.958L296.155 467.244ZM342.967 501.484C342.967 501.981 342.884 503.387 342.718 505.702H320.14C320.36 510.224 321.143 513.377 322.489 515.164C323.845 516.961 325.764 517.86 328.245 517.86C329.954 517.86 331.498 517.568 332.876 516.983C334.255 516.41 335.744 515.489 337.343 514.221L341.561 520.01C337.701 523.76 333.069 525.634 327.666 525.634C321.932 525.634 317.532 523.65 314.466 519.68C311.412 515.71 309.884 510.113 309.884 502.89C309.884 495.667 311.345 489.961 314.268 485.77C317.19 481.58 321.325 479.485 326.673 479.485C331.801 479.485 335.799 481.343 338.666 485.059C341.533 488.786 342.967 494.261 342.967 501.484ZM333.042 499.086V498.507C333.042 494.372 332.546 491.35 331.553 489.442C330.561 487.546 328.962 486.597 326.756 486.597C324.716 486.597 323.156 487.518 322.075 489.36C321.005 491.212 320.36 494.454 320.14 499.086H333.042ZM370.177 479.485C374.411 479.485 377.664 481.414 379.936 485.274C382.197 489.134 383.327 494.868 383.327 502.477C383.327 509.645 382.059 515.296 379.522 519.432C376.975 523.567 373.496 525.634 369.085 525.634C367.155 525.634 365.396 525.149 363.808 524.179C362.209 523.219 360.831 521.885 359.673 520.176L359.094 524.394H350.079V463.192L360.252 462.116V485.357C361.41 483.482 362.827 482.032 364.503 481.006C366.179 479.992 368.07 479.485 370.177 479.485ZM366.372 517.943C368.412 517.943 369.995 516.785 371.12 514.469C372.244 512.153 372.807 508.156 372.807 502.477C372.807 496.577 372.3 492.536 371.285 490.352C370.27 488.18 368.826 487.094 366.951 487.094C365.683 487.094 364.465 487.617 363.296 488.665C362.149 489.713 361.134 491.091 360.252 492.8V513.311C360.969 514.69 361.862 515.809 362.932 516.669C364.001 517.518 365.148 517.943 366.372 517.943ZM427.393 480.643H436.821L429.295 524.394H416.889L412.009 489.906L407.212 524.394H394.889L387.198 480.643H397.04L401.506 516.785L407.047 480.643H417.385L422.678 516.785L427.393 480.643ZM442.61 480.643H452.783V524.394H442.61V480.643ZM447.655 458.808C449.475 458.808 450.953 459.387 452.089 460.545C453.213 461.703 453.776 463.192 453.776 465.011C453.776 466.776 453.213 468.237 452.089 469.395C450.953 470.552 449.475 471.131 447.655 471.131C445.836 471.131 444.364 470.552 443.239 469.395C442.103 468.237 441.535 466.776 441.535 465.011C441.535 463.192 442.103 461.703 443.239 460.545C444.364 459.387 445.836 458.808 447.655 458.808ZM474.369 479.485C479.552 479.485 483.936 481.194 487.52 484.612L483.632 490.154C482.089 489.051 480.628 488.224 479.249 487.672C477.871 487.121 476.465 486.845 475.031 486.845C473.432 486.845 472.175 487.27 471.26 488.119C470.355 488.979 469.903 490.154 469.903 491.642C469.903 493.131 470.411 494.328 471.425 495.232C472.451 496.147 474.507 497.211 477.595 498.424C481.399 499.913 484.211 501.677 486.031 503.717C487.85 505.757 488.76 508.487 488.76 511.905C488.76 516.151 487.272 519.498 484.294 521.946C481.317 524.405 477.54 525.634 472.963 525.634C469.986 525.634 467.24 525.094 464.726 524.013C462.223 522.944 460.034 521.444 458.159 519.514L463.121 514.056C466.209 516.757 469.352 518.108 472.55 518.108C474.369 518.108 475.803 517.629 476.851 516.669C477.898 515.699 478.422 514.359 478.422 512.65C478.422 511.381 478.201 510.35 477.76 509.556C477.319 508.751 476.547 508.002 475.445 507.307C474.342 506.623 472.688 505.868 470.482 505.041C466.678 503.552 463.96 501.815 462.328 499.83C460.706 497.845 459.896 495.309 459.896 492.221C459.896 488.527 461.203 485.478 463.816 483.074C466.441 480.681 469.958 479.485 474.369 479.485ZM526.309 501.484C526.309 501.981 526.226 503.387 526.061 505.702H503.482C503.702 510.224 504.485 513.377 505.831 515.164C507.187 516.961 509.106 517.86 511.587 517.86C513.296 517.86 514.84 517.568 516.219 516.983C517.597 516.41 519.086 515.489 520.685 514.221L524.903 520.01C521.043 523.76 516.412 525.634 511.008 525.634C505.274 525.634 500.874 523.65 497.808 519.68C494.754 515.71 493.226 510.113 493.226 502.89C493.226 495.667 494.687 489.961 497.61 485.77C500.532 481.58 504.667 479.485 510.016 479.485C515.143 479.485 519.141 481.343 522.008 485.059C524.875 488.786 526.309 494.261 526.309 501.484ZM516.384 499.086V498.507C516.384 494.372 515.888 491.35 514.895 489.442C513.903 487.546 512.304 486.597 510.098 486.597C508.058 486.597 506.498 487.518 505.417 489.36C504.348 491.212 503.702 494.454 503.482 499.086H516.384ZM562.683 467.244C567.48 467.244 571.631 467.972 575.138 469.428C578.634 470.894 581.473 473.706 583.657 477.864C585.829 482.032 586.915 487.921 586.915 495.53C586.915 506.281 584.782 513.78 580.514 518.026C576.235 522.271 570.65 524.394 563.758 524.394H549.946V467.244H562.683ZM564.254 475.101H560.45V516.537H564.337C566.818 516.537 568.902 515.958 570.589 514.8C572.266 513.642 573.589 511.519 574.559 508.432C575.519 505.344 575.998 501.043 575.998 495.53C575.998 489.906 575.491 485.605 574.476 482.627C573.451 479.65 572.1 477.649 570.424 476.623C568.737 475.608 566.68 475.101 564.254 475.101ZM594.524 480.643H604.697V524.394H594.524V480.643ZM599.569 458.808C601.389 458.808 602.861 459.387 603.986 460.545C605.122 461.703 605.69 463.192 605.69 465.011C605.69 466.776 605.122 468.237 603.986 469.395C602.861 470.552 601.389 471.131 599.569 471.131C597.75 471.131 596.272 470.552 595.136 469.395C594.012 468.237 593.449 466.776 593.449 465.011C593.449 463.192 594.012 461.703 595.136 460.545C596.272 459.387 597.75 458.808 599.569 458.808ZM643.817 475.019L646.381 482.876C645.223 483.427 643.828 483.813 642.196 484.033C640.575 484.254 638.551 484.364 636.125 484.364C638.441 485.467 640.161 486.939 641.286 488.781C642.422 490.633 642.99 492.911 642.99 495.612C642.99 500.023 641.639 503.58 638.937 506.281C636.236 508.983 632.569 510.334 627.938 510.334C626.559 510.334 625.153 510.113 623.72 509.672C622.727 510.499 622.231 511.63 622.231 513.063C622.231 514.166 622.534 514.993 623.141 515.544C623.747 516.096 624.877 516.371 626.532 516.371H631.163C635.574 516.371 639.075 517.513 641.667 519.795C644.258 522.089 645.554 525 645.554 528.529C645.554 532.72 643.938 536.072 640.707 538.586C637.487 541.089 632.9 542.341 626.945 542.341C620.659 542.341 616.259 541.183 613.745 538.867C611.242 536.552 609.99 533.161 609.99 528.695H619.005C619.005 531.065 619.557 532.747 620.659 533.74C621.762 534.732 623.885 535.228 627.028 535.228C630.06 535.228 632.211 534.705 633.479 533.657C634.747 532.609 635.381 531.121 635.381 529.191C635.381 527.316 634.857 525.938 633.81 525.056C632.762 524.173 631.135 523.732 628.93 523.732H625.787C621.597 523.732 618.537 522.988 616.607 521.499C614.677 520.01 613.712 517.97 613.712 515.379C613.712 513.89 614.109 512.468 614.903 511.111C615.708 509.766 616.8 508.569 618.178 507.522C615.918 506.088 614.263 504.379 613.216 502.394C612.168 500.409 611.644 497.983 611.644 495.116C611.644 490.319 613.078 486.526 615.945 483.736C618.812 480.957 622.672 479.567 627.524 479.567C631.108 479.567 634.069 479.181 636.407 478.409C638.755 477.638 641.226 476.507 643.817 475.019ZM627.524 486.349C625.594 486.349 624.133 487.038 623.141 488.417C622.148 489.795 621.652 491.973 621.652 494.951C621.652 497.763 622.148 499.924 623.141 501.435C624.133 502.957 625.567 503.717 627.441 503.717C629.371 503.717 630.805 503.039 631.742 501.683C632.679 500.338 633.148 498.066 633.148 494.868C633.148 491.89 632.69 489.724 631.775 488.367C630.871 487.022 629.454 486.349 627.524 486.349ZM650.913 480.643H661.086V524.394H650.913V480.643ZM655.958 458.808C657.778 458.808 659.255 459.387 660.391 460.545C661.516 461.703 662.078 463.192 662.078 465.011C662.078 466.776 661.516 468.237 660.391 469.395C659.255 470.552 657.778 471.131 655.958 471.131C654.139 471.131 652.667 470.552 651.542 469.395C650.406 468.237 649.838 466.776 649.838 465.011C649.838 463.192 650.406 461.703 651.542 460.545C652.667 459.387 654.139 458.808 655.958 458.808ZM688.958 516.123L692.514 522.409C689.812 524.559 686.642 525.634 683.003 525.634C679.199 525.634 676.304 524.543 674.319 522.359C672.334 520.187 671.342 517.226 671.342 513.477V488.003H666.214V480.643H671.342V470.966L681.514 469.725V480.643H689.785L688.792 488.003H681.514V513.477C681.514 516.123 682.645 517.447 684.905 517.447C685.622 517.447 686.256 517.347 686.807 517.149C687.359 516.961 688.076 516.62 688.958 516.123ZM724.687 513.808C724.687 515.241 724.88 516.3 725.266 516.983C725.652 517.678 726.286 518.246 727.168 518.687L725.1 525.469C722.84 525.193 721.031 524.587 719.675 523.65C718.329 522.712 717.326 521.279 716.664 519.349C714.128 523.539 710.572 525.634 705.995 525.634C702.356 525.634 699.461 524.405 697.311 521.946C695.161 519.498 694.086 516.234 694.086 512.153C694.086 507.412 695.558 503.8 698.502 501.319C701.457 498.838 705.747 497.597 711.371 497.597H714.762V494.537C714.762 491.78 714.277 489.834 713.306 488.698C712.347 487.573 710.792 487.011 708.642 487.011C706.05 487.011 702.825 487.728 698.965 489.161L696.649 482.545C698.855 481.552 701.143 480.791 703.514 480.262C705.885 479.744 708.146 479.485 710.296 479.485C719.89 479.485 724.687 484.337 724.687 494.041V513.808ZM708.725 518.274C711.371 518.274 713.384 516.454 714.762 512.815V503.635H712.364C709.552 503.635 707.495 504.269 706.194 505.537C704.904 506.805 704.258 508.762 704.258 511.409C704.258 513.67 704.644 515.379 705.416 516.537C706.188 517.695 707.291 518.274 708.725 518.274ZM743.544 525.634C740.566 525.634 738.206 524.708 736.464 522.856C734.733 521.014 733.867 518.549 733.867 515.462V463.109L744.04 462.034V515.048C744.04 515.765 744.205 516.344 744.536 516.785C744.867 517.226 745.363 517.447 746.025 517.447C746.411 517.447 746.78 517.391 747.133 517.281C747.497 517.171 747.734 517.116 747.844 517.116L749.829 524.063C747.955 525.111 745.859 525.634 743.544 525.634Z" fill="white"/>
</g>
</g>
</g>
</g>
<g clip-path="url(#clip8_6_6)">
<g clip-path="url(#clip9_6_6)">
<path d="M426.305 318.683H428.867L419.45 343.266L432.353 348.209L443.506 319.095L442.429 318.683H449.652L480.551 335.643C484.92 335.643 488.462 332.102 488.462 327.733V273.242C488.462 268.873 484.921 265.332 480.551 265.332L449.652 282.296H426.305C416.258 282.296 408.114 290.441 408.114 300.488C408.114 310.538 416.258 318.683 426.305 318.683Z" fill="white"/>
<path d="M585.436 425.271V324.86H534.773V425.271H523.259V361.71H472.596V425.271H461.082V389.346H410.419V425.271H398.905V439.088H601.095V425.271H585.436ZM447.265 425.271H424.236V403.164H447.265V425.271ZM509.442 425.271H486.413V375.527H509.442V425.271ZM571.619 425.271H548.59V338.677H571.619V425.271Z" fill="white"/>
<path d="M525.24 299.691L542.068 311.786L571.849 284.91V297.464H585.666V262.461H550.664V276.278H560.79L541.083 294.062L525.431 282.812L504.386 297.224L512.194 308.624L525.24 299.691Z" fill="white"/>
</g>
</g>
</g>
</g>
</g>
</g>
<defs>
<clipPath id="clip0_6_6">
<rect width="999.416" height="803.102" fill="white" transform="translate(0.291809 0.849854)"/>
</clipPath>
<clipPath id="clip1_6_6">
<rect width="999.416" height="803.102" fill="white" transform="translate(0.291809 0.849854)"/>
</clipPath>
<clipPath id="clip2_6_6">
<rect width="499.708" height="279.88" fill="white" transform="translate(250.146 262.461)"/>
</clipPath>
<clipPath id="clip3_6_6">
<rect width="499.708" height="279.88" fill="white" transform="translate(250.146 262.461)"/>
</clipPath>
<clipPath id="clip4_6_6">
<rect width="499.708" height="83.5328" fill="white" transform="translate(250.146 458.808)"/>
</clipPath>
<clipPath id="clip5_6_6">
<rect width="499.708" height="83.5328" fill="white" transform="translate(250.146 458.808)"/>
</clipPath>
<clipPath id="clip6_6_6">
<rect width="499.708" height="83.5328" fill="white" transform="translate(250.146 458.808)"/>
</clipPath>
<clipPath id="clip7_6_6">
<rect width="499.708" height="83.5328" fill="white" transform="translate(250.146 458.808)"/>
</clipPath>
<clipPath id="clip8_6_6">
<rect width="202.19" height="176.627" fill="white" transform="translate(398.905 262.461)"/>
</clipPath>
<clipPath id="clip9_6_6">
<rect width="202.19" height="176.627" fill="white" transform="translate(398.905 262.461)"/>
</clipPath>
</defs>
</svg>
